# xmcd
#
# Track frame offsets:
#	150
#	14962
#	33687
#	51520
#	68432
#	87412
#	103267
#	118242
#	140067
#	159682
#	180270
#	187882
#
# Disc length: 2837 seconds
# Revision: 0
# Processed by: cddbd v1.5.2PL0 Copyright (c) Steve Scherf et al.
# Submitted via: dBpowerAMP V12.0
#
DISCID=b00b130c
DTITLE=Nightrage - Vengeance Descending
DYEAR=2010
DGENRE=Metal
TTITLE0=The Tremor
TTITLE1=The Glow of the Setting Sun
TTITLE2=Hero
TTITLE3=Elusive Emotion
TTITLE4=Gloomy Daydreams
TTITLE5=Macabre Apparition
TTITLE6=In My Heart
TTITLE7=Ethereal
TTITLE8=Circle of Pain
TTITLE9=At the Ends of the Earth
TTITLE10=The Howls of the Wolves
TTITLE11=Gloomy Daydreams (Extended Demo Version)
EXTD=
EXTT0=
EXTT1=
EXTT2=
EXTT3=
EXTT4=
EXTT5=
EXTT6=
EXTT7=
EXTT8=
EXTT9=
EXTT10=
EXTT11=
PLAYORDER=
